<?xml version="1.0" encoding="UTF-8" standalone="no"?>
<svg
   version="1.0"
   width="191.00999mm"
   height="105.51mm"
   id="svg31"
   sodipodi:docname="Export1.emf"
   xmlns:inkscape="http://www.inkscape.org/namespaces/inkscape"
   xmlns:sodipodi="http://sodipodi.sourceforge.net/DTD/sodipodi-0.dtd"
   xmlns="http://www.w3.org/2000/svg"
   xmlns:svg="http://www.w3.org/2000/svg">
  <sodipodi:namedview
     id="namedview33"
     pagecolor="#ffffff"
     bordercolor="#666666"
     borderopacity="1.0"
     inkscape:pageshadow="2"
     inkscape:pageopacity="0.0"
     inkscape:pagecheckerboard="0"
     inkscape:document-units="mm" />
  <defs
     id="defs3">
    <pattern
       id="EMFhbasepattern"
       patternUnits="userSpaceOnUse"
       width="6"
       height="6"
       x="0"
       y="0" />
  </defs>
  <path
     style="fill:#796206;fill-rule:evenodd;fill-opacity:1;stroke:#000000;stroke-width:0.018012756px;stroke-linecap:butt;stroke-linejoin:bevel;stroke-miterlimit:4;stroke-dasharray:none;stroke-opacity:1;"
     d="  M 69.845011,19.720922   L 565.21381,19.720922   L 565.21381,312.75106   L 69.845011,312.75106   L 69.845011,19.720922   z "
     id="path5" />
  <path
     style="fill:#b39109;fill-rule:evenodd;fill-opacity:1;stroke:#ffffff;stroke-width:0.018012756px;stroke-linecap:butt;stroke-linejoin:bevel;stroke-miterlimit:4;stroke-dasharray:none;stroke-opacity:1;"
     d="  M 0.35179843,0.4848472   L 331.57035,0.4848472   L 331.57035,292.01864   L 0.35179843,292.01864   L 0.35179843,0.4848472   z "
     id="path7" />
  <path
     style="fill:#656565;fill-rule:evenodd;fill-opacity:1;stroke:#ffffff;stroke-width:0.018012756px;stroke-linecap:butt;stroke-linejoin:bevel;stroke-miterlimit:4;stroke-dasharray:none;stroke-opacity:1;"
     d="  M 89.082634,56.71476   L 475.00593,56.71476   L 475.00593,241.70198   L 89.082634,241.70198   L 89.082634,56.71476   z "
     id="path9" />
  <path
     style="fill:#ffffff;fill-rule:evenodd;fill-opacity:1;stroke:#ffffff;stroke-width:0.018012756px;stroke-linecap:butt;stroke-linejoin:bevel;stroke-miterlimit:4;stroke-dasharray:none;stroke-opacity:1;"
     d="  M 118.38939,118.55144   L 134.5108,118.55144   C 137.71707,118.55144 140.09476,118.67764 141.66187,118.94806   C 143.22898,119.21848 144.63397,119.77735 145.87685,120.62468   C 147.10172,121.472 148.14646,122.58975 148.97505,123.99595   C 149.78562,125.40215 150.19991,126.98863 150.19991,128.71933   C 150.19991,130.63032 149.69556,132.36103 148.68684,133.94751   C 147.67813,135.51596 146.30916,136.70582 144.57993,137.49906   C 147.01166,138.22019 148.88498,139.42808 150.19991,141.14076   C 151.49683,142.87146 152.16331,144.89062 152.16331,147.21625   C 152.16331,149.05513 151.731,150.82189 150.8844,152.5526   C 150.0378,154.2833 148.86697,155.67147 147.38992,156.69908   C 145.91288,157.72669 144.09359,158.3757 141.93206,158.61007   C 140.56309,158.75429 137.30278,158.84443 132.11511,158.88049   L 118.38939,158.88049   L 118.38939,118.55144   z  M 126.47712,125.33004   L 126.47712,134.59652   L 131.8269,134.59652   C 134.99715,134.59652 136.97855,134.56047 137.7531,134.47033   C 139.14008,134.30807 140.25687,133.82131 141.04943,133.02807   C 141.842,132.23483 142.25629,131.20722 142.25629,129.9092   C 142.25629,128.66525 141.89603,127.65567 141.21155,126.88046   C 140.52706,126.10525 139.50034,125.63651 138.13137,125.47426   C 137.32079,125.38412 134.99715,125.33004 131.16043,125.33004   L 126.47712,125.33004   z  M 126.47712,141.39315   L 126.47712,152.10189   L 134.06049,152.10189   C 137.01458,152.10189 138.8879,152.01175 139.68047,151.8495   C 140.90533,151.63316 141.89603,151.09231 142.67058,150.26302   C 143.42712,149.41569 143.8234,148.27992 143.8234,146.85569   C 143.8234,145.6478 143.51718,144.63822 142.92276,143.7909   C 142.32834,142.9616 141.48174,142.34864 140.36495,141.97005   C 139.24816,141.59146 136.81644,141.39315 133.0878,141.39315   L 126.47712,141.39315   z "
     id="path11" />
  <path
     style="fill:#ffffff;fill-rule:evenodd;fill-opacity:1;stroke:#ffffff;stroke-width:0.018012756px;stroke-linecap:butt;stroke-linejoin:bevel;stroke-miterlimit:4;stroke-dasharray:none;stroke-opacity:1;"
     d="  M 175.90412,149.7402   L 183.59556,151.05626   C 182.60486,153.85063 181.03775,155.99598 178.89423,157.45626   C 176.76873,158.93457 174.08483,159.6557 170.87856,159.6557   C 165.79896,159.6557 162.05231,157.99711 159.62059,154.64387   C 157.69322,151.95767 156.72053,148.56837 156.72053,144.494   C 156.72053,139.60836 157.99944,135.78638 160.53924,133.01004   C 163.07904,130.25173 166.28531,128.86356 170.17606,128.86356   C 174.53515,128.86356 177.97558,130.30582 180.49737,133.20835   C 183.01916,136.09286 184.22601,140.50977 184.11793,146.4771   L 164.68217,146.4771   C 164.73621,148.78471 165.34864,150.58752 166.53748,151.86753   C 167.72633,153.14753 169.22139,153.79654 170.98664,153.79654   C 172.19349,153.79654 173.2022,153.47203 174.03079,152.84105   C 174.85938,152.19203 175.47181,151.16443 175.90412,149.7402   z  M 176.40847,141.78977   C 176.35444,139.48216 175.77803,137.73343 174.67925,136.54357   C 173.56246,135.33568 172.22952,134.74075 170.64439,134.74075   C 168.95119,134.74075 167.5462,135.37174 166.44742,136.63371   C 165.34864,137.89568 164.79025,139.60836 164.80826,141.78977   L 176.40847,141.78977   z "
     id="path13" />
  <path
     style="fill:#ffffff;fill-rule:evenodd;fill-opacity:1;stroke:#ffffff;stroke-width:0.018012756px;stroke-linecap:butt;stroke-linejoin:bevel;stroke-miterlimit:4;stroke-dasharray:none;stroke-opacity:1;"
     d="  M 197.80763,118.55144   L 197.80763,133.37061   C 200.3114,130.3599 203.31953,128.86356 206.83202,128.86356   C 208.61528,128.86356 210.23643,129.18807 211.67745,129.85511   C 213.11847,130.52215 214.21725,131.36948 214.93776,132.39708   C 215.67628,133.42469 216.18064,134.5785 216.43282,135.82244   C 216.70301,137.08441 216.84711,139.03146 216.84711,141.66357   L 216.84711,158.88049   L 209.15566,158.88049   L 209.15566,143.32217   C 209.15566,140.23935 208.99355,138.2923 208.70535,137.44498   C 208.39913,136.61568 207.87676,135.96667 207.12022,135.46188   C 206.36369,134.97512 205.40901,134.74075 204.27421,134.74075   C 202.95928,134.74075 201.78845,135.04723 200.76172,135.67821   C 199.75301,136.3092 198.99647,137.24667 198.51013,138.52667   C 198.04179,139.78864 197.80763,141.66357 197.80763,144.13343   L 197.80763,158.88049   L 190.11618,158.88049   L 190.11618,118.55144   L 197.80763,118.55144   z "
     id="path15" />
  <path
     style="fill:#ffffff;fill-rule:evenodd;fill-opacity:1;stroke:#ffffff;stroke-width:0.018012756px;stroke-linecap:butt;stroke-linejoin:bevel;stroke-miterlimit:4;stroke-dasharray:none;stroke-opacity:1;"
     d="  M 230.28463,138.38244   L 223.36773,137.08441   C 224.14228,134.29004 225.51125,132.2168 227.43861,130.88272   C 229.34796,129.5306 232.21199,128.86356 235.99467,128.86356   C 239.43511,128.86356 241.99292,129.27821 243.68612,130.08948   C 245.3613,130.91877 246.55015,131.96441 247.23463,133.20835   C 247.93713,134.47033 248.27937,136.79596 248.27937,140.16723   L 248.13527,149.23541   C 248.13527,151.81344 248.27937,153.72443 248.53155,154.95035   C 248.78373,156.17626 249.27007,157.47429 249.97257,158.88049   L 242.28112,158.88049   C 242.06497,158.3757 241.8308,157.63655 241.5426,156.645   C 241.3985,156.19429 241.30843,155.88781 241.2544,155.74359   C 239.93946,157.05964 238.53447,158.03317 237.03941,158.68218   C 235.54435,159.33119 233.94122,159.6557 232.24802,159.6557   C 229.2579,159.6557 226.89823,158.84443 225.169,157.18584   C 223.43978,155.52725 222.57517,153.45401 222.57517,150.91203   C 222.57517,149.25344 222.97145,147.7571 223.746,146.45907   C 224.53856,145.14301 225.63734,144.13343 227.04233,143.44836   C 228.44733,142.74526 230.48277,142.13231 233.13064,141.60949   C 236.71518,140.92442 239.20094,140.29343 240.58792,139.6985   L 240.58792,138.92329   C 240.58792,137.40892 240.20966,136.34526 239.48915,135.69624   C 238.75062,135.06526 237.36364,134.74075 235.34621,134.74075   C 233.97724,134.74075 232.89648,135.01117 232.13994,135.55202   C 231.36539,136.09286 230.75296,137.03033 230.28463,138.38244   z  M 240.58792,144.78245   C 239.59722,145.12498 238.04813,145.5216 235.92262,145.99034   C 233.81513,146.45907 232.42815,146.90977 231.77969,147.36048   C 230.77097,148.08161 230.28463,149.01907 230.28463,150.11879   C 230.28463,151.23654 230.68091,152.174 231.47347,152.98527   C 232.26603,153.77851 233.27475,154.17513 234.51763,154.17513   C 235.88659,154.17513 237.20153,153.72443 238.46242,152.78696   C 239.38107,152.08386 239.9935,151.21851 240.28171,150.1909   C 240.47985,149.50583 240.58792,148.24386 240.58792,146.3509   L 240.58792,144.78245   z "
     id="path17" />
  <path
     style="fill:#ffffff;fill-rule:evenodd;fill-opacity:1;stroke:#ffffff;stroke-width:0.018012756px;stroke-linecap:butt;stroke-linejoin:bevel;stroke-miterlimit:4;stroke-dasharray:none;stroke-opacity:1;"
     d="  M 255.82672,125.72666   L 255.82672,118.55144   L 263.53617,118.55144   L 263.53617,125.72666   L 255.82672,125.72666   z  M 263.53617,129.63877   L 263.53617,158.06922   C 263.53617,161.80106 263.284,164.43317 262.79765,165.9836   C 262.31131,167.51599 261.37464,168.72388 259.98766,169.58923   C 258.60068,170.45459 256.83543,170.88726 254.6739,170.88726   C 253.91736,170.88726 253.08878,170.81515 252.18814,170.67092   C 251.30551,170.54473 250.35084,170.32839 249.32411,170.05797   L 250.69308,163.45965   C 251.05334,163.53176 251.39558,163.58585 251.71981,163.63993   C 252.04404,163.67599 252.33224,163.71204 252.62044,163.71204   C 253.41301,163.71204 254.06147,163.53176 254.56582,163.18923   C 255.07018,162.84669 255.41242,162.45007 255.57454,161.96331   C 255.75466,161.47655 255.82672,160.05232 255.82672,157.65457   L 255.82672,129.63877   L 263.53617,129.63877   z "
     id="path19" />
  <path
     style="fill:#ffffff;fill-rule:evenodd;fill-opacity:1;stroke:#ffffff;stroke-width:0.018012756px;stroke-linecap:butt;stroke-linejoin:bevel;stroke-miterlimit:4;stroke-dasharray:none;stroke-opacity:1;"
     d="  M 284.52104,150.78583   L 292.48267,149.614   C 292.8069,151.11034 293.43735,152.24612 294.41004,153.02133   C 295.38273,153.79654 296.7517,154.17513 298.49893,154.17513   C 300.4263,154.17513 301.86732,153.81457 302.84001,153.05739   C 303.50648,152.53457 303.83071,151.83147 303.83071,150.94809   C 303.83071,150.35316 303.65058,149.84837 303.29033,149.45175   C 302.89405,149.07316 302.04745,148.73062 300.73252,148.40611   C 294.55414,146.99992 290.64537,145.71991 289.00621,144.58414   C 286.71859,142.97963 285.56578,140.76216 285.56578,137.93174   C 285.56578,135.37174 286.57449,133.22638 288.55589,131.47765   C 290.55531,129.72891 293.6535,128.86356 297.83246,128.86356   C 301.83129,128.86356 304.78539,129.51257 306.73076,130.8106   C 308.67614,132.10863 310.00909,134.01962 310.74761,136.5616   L 303.43443,137.85963   C 303.12821,136.72385 302.53379,135.8585 301.66918,135.24554   C 300.80457,134.65061 299.5797,134.34413 297.97656,134.34413   C 295.94112,134.34413 294.5001,134.63258 293.61748,135.20948   C 293.04107,135.62413 292.73485,136.16498 292.73485,136.81399   C 292.73485,137.37286 293.00504,137.85963 293.5094,138.25625   C 294.2119,138.77906 296.62561,139.51822 300.73252,140.47371   C 304.85744,141.42921 307.73948,142.60104 309.36063,143.97118   C 310.98177,145.35935 311.77434,147.28837 311.77434,149.77626   C 311.77434,152.48048 310.65754,154.80612 308.42396,156.75316   C 306.19038,158.70021 302.89405,159.6557 298.51695,159.6557   C 294.53613,159.6557 291.3839,158.86246 289.07826,157.27598   C 286.75462,155.6895 285.24155,153.52612 284.52104,150.78583   z "
     id="path21" />
  <path
     style="fill:#ffffff;fill-rule:evenodd;fill-opacity:1;stroke:#ffffff;stroke-width:0.018012756px;stroke-linecap:butt;stroke-linejoin:bevel;stroke-miterlimit:4;stroke-dasharray:none;stroke-opacity:1;"
     d="  M 360.82307,158.88049   L 353.13162,158.88049   L 353.13162,143.86301   C 353.13162,140.67202 352.9515,138.61681 352.62727,137.67934   C 352.28502,136.75991 351.74464,136.02075 350.9881,135.51596   C 350.23157,134.99314 349.31292,134.74075 348.26818,134.74075   C 346.89921,134.74075 345.67434,135.10131 344.59358,135.84047   C 343.51281,136.57962 342.77429,137.57117 342.37801,138.77906   C 341.98173,140.00498 341.78359,142.2585 341.78359,145.53963   L 341.78359,158.88049   L 334.09214,158.88049   L 334.09214,129.63877   L 341.26122,129.63877   L 341.26122,133.94751   C 343.81903,130.55821 347.04331,128.86356 350.93407,128.86356   C 352.64528,128.86356 354.2304,129.17004 355.6354,129.783   C 357.0584,130.41398 358.13917,131.1892 358.85968,132.14469   C 359.5982,133.11821 360.10256,134.1999 360.39076,135.40779   C 360.67897,136.63371 360.82307,138.36441 360.82307,140.63597   L 360.82307,158.88049   z "
     id="path23" />
  <path
     style="fill:#ffffff;fill-rule:evenodd;fill-opacity:1;stroke:#ffffff;stroke-width:0.018012756px;stroke-linecap:butt;stroke-linejoin:bevel;stroke-miterlimit:4;stroke-dasharray:none;stroke-opacity:1;"
     d="  M 374.24257,138.38244   L 367.34369,137.08441   C 368.11824,134.29004 369.48721,132.2168 371.41457,130.88272   C 373.32392,129.5306 376.18795,128.86356 379.97063,128.86356   C 383.41107,128.86356 385.96888,129.27821 387.66208,130.08948   C 389.33726,130.91877 390.5261,131.96441 391.21059,133.20835   C 391.89507,134.47033 392.25533,136.79596 392.25533,140.16723   L 392.11123,149.23541   C 392.11123,151.81344 392.23732,153.72443 392.50751,154.95035   C 392.75969,156.17626 393.24603,157.47429 393.94853,158.88049   L 386.25708,158.88049   C 386.04093,158.3757 385.80676,157.63655 385.50055,156.645   C 385.37446,156.19429 385.28439,155.88781 385.23035,155.74359   C 383.91542,157.05964 382.51043,158.03317 381.01537,158.68218   C 379.52031,159.33119 377.91717,159.6557 376.22398,159.6557   C 373.23386,159.6557 370.87419,158.84443 369.14496,157.18584   C 367.41574,155.52725 366.55113,153.45401 366.55113,150.91203   C 366.55113,149.25344 366.94741,147.7571 367.72196,146.45907   C 368.51452,145.14301 369.61329,144.13343 371.01829,143.44836   C 372.42328,142.74526 374.45873,142.13231 377.1066,141.60949   C 380.69114,140.92442 383.1769,140.29343 384.54587,139.6985   L 384.54587,138.92329   C 384.54587,137.40892 384.18561,136.34526 383.4651,135.69624   C 382.72658,135.06526 381.3396,134.74075 379.32217,134.74075   C 377.9532,134.74075 376.87244,135.01117 376.1159,135.55202   C 375.34135,136.09286 374.72892,137.03033 374.24257,138.38244   z  M 384.54587,144.78245   C 383.57318,145.12498 382.02408,145.5216 379.89858,145.99034   C 377.79109,146.45907 376.4041,146.90977 375.75564,147.36048   C 374.74693,148.08161 374.24257,149.01907 374.24257,150.11879   C 374.24257,151.23654 374.63885,152.174 375.44943,152.98527   C 376.24199,153.77851 377.2507,154.17513 378.49358,154.17513   C 379.86255,154.17513 381.17748,153.72443 382.43838,152.78696   C 383.35703,152.08386 383.96946,151.21851 384.25767,150.1909   C 384.45581,149.50583 384.54587,148.24386 384.54587,146.3509   L 384.54587,144.78245   z "
     id="path25" />
  <path
     style="fill:#ffffff;fill-rule:evenodd;fill-opacity:1;stroke:#ffffff;stroke-width:0.018012756px;stroke-linecap:butt;stroke-linejoin:bevel;stroke-miterlimit:4;stroke-dasharray:none;stroke-opacity:1;"
     d="  M 399.42441,129.63877   L 406.59348,129.63877   L 406.59348,133.64103   C 409.11527,130.45004 412.1234,128.86356 415.61787,128.86356   C 417.47319,128.86356 419.09433,129.24215 420.4633,130.01736   C 421.81426,130.77455 422.93105,131.92835 423.81368,133.47878   C 425.07457,131.92835 426.44354,130.77455 427.92059,130.01736   C 429.37962,129.24215 430.94673,128.86356 432.6039,128.86356   C 434.72941,128.86356 436.51267,129.29624 437.98972,130.17962   C 439.44875,131.04497 440.54753,132.343 441.26804,134.03765   C 441.79041,135.28159 442.0606,137.31878 442.0606,140.11315   L 442.0606,158.88049   L 434.36915,158.88049   L 434.36915,142.06019   C 434.36915,139.13963 434.09896,137.24667 433.57659,136.39934   C 432.87409,135.29962 431.81134,134.74075 430.35231,134.74075   C 429.28955,134.74075 428.29885,135.06526 427.36219,135.7323   C 426.42553,136.39934 425.74104,137.37286 425.34476,138.65287   C 424.93047,139.95089 424.71431,141.97005 424.71431,144.74639   L 424.71431,158.88049   L 417.02287,158.88049   L 417.02287,142.74526   C 417.02287,139.87878 416.87877,138.03991 416.60857,137.21061   C 416.33838,136.38131 415.90608,135.75033 415.32967,135.35371   C 414.75326,134.93906 413.97871,134.74075 412.98801,134.74075   C 411.79917,134.74075 410.7184,135.06526 409.78174,135.71427   C 408.82706,136.36329 408.14258,137.28272 407.72829,138.50864   C 407.31399,139.73456 407.11585,141.75371 407.11585,144.58414   L 407.11585,158.88049   L 399.42441,158.88049   L 399.42441,129.63877   z "
     id="path27" />
  <path
     style="fill:#ffffff;fill-rule:evenodd;fill-opacity:1;stroke:#ffffff;stroke-width:0.018012756px;stroke-linecap:butt;stroke-linejoin:bevel;stroke-miterlimit:4;stroke-dasharray:none;stroke-opacity:1;"
     d="  M 449.89615,125.72666   L 449.89615,118.55144   L 457.58759,118.55144   L 457.58759,125.72666   L 449.89615,125.72666   z  M 449.89615,158.88049   L 449.89615,129.63877   L 457.58759,129.63877   L 457.58759,158.88049   L 449.89615,158.88049   z "
     id="path29" />
</svg>
